<svg width="681" height="259" viewBox="0 0 681 259" fill="none" xmlns="http://www.w3.org/2000/svg">
  <path d="M160.069 257.336L245.567 2.31589L331.065 257.336H160.069Z" stroke="white" />
  <mask id="path-2-inside-1_148_181" fill="white">
    <path fill-rule="evenodd" clip-rule="evenodd"
      d="M562.256 86.1929C562.256 38.5899 523.666 0 476.063 0C428.46 0 389.87 38.5899 389.87 86.1929C389.87 86.2277 389.87 86.2624 389.87 86.2971V258.579H562.256L562.256 86.1929Z" />
  </mask>
  <path
    d="M562.256 86.1929H561.256H562.256ZM389.87 86.2971H390.87L390.87 86.2959L389.87 86.2971ZM389.87 258.579H388.87V259.579H389.87V258.579ZM562.256 258.579V259.579H563.256V258.579H562.256ZM476.063 1C523.114 1 561.256 39.1422 561.256 86.1929H563.256C563.256 38.0376 524.218 -1 476.063 -1V1ZM390.87 86.1929C390.87 39.1422 429.012 1 476.063 1V-1C427.908 -1 388.87 38.0376 388.87 86.1929H390.87ZM390.87 86.2959C390.87 86.2616 390.87 86.2273 390.87 86.1929H388.87C388.87 86.2281 388.87 86.2632 388.87 86.2983L390.87 86.2959ZM390.87 258.579V86.2971H388.87V258.579H390.87ZM562.256 257.579H389.87V259.579H562.256V257.579ZM561.256 86.1929L561.256 258.579H563.256L563.256 86.1929H561.256Z"
    fill="#1C1A44" mask="url(#path-2-inside-1_148_181)" stroke="white" />
  <circle cx="481.814" cy="139.499" r="5.75096" fill="#FCF9F6" />
  <mask id="mask0_148_181" style="mask-type:alpha" maskUnits="userSpaceOnUse" x="0" y="0"
    width="681" height="259">
    <path fill-rule="evenodd" clip-rule="evenodd"
      d="M489.739 1.07886H680.5V258.079H389.5V1.07886H462.388C466.842 0.368831 471.409 0 476.063 0C480.717 0 485.285 0.368831 489.739 1.07886Z"
      fill="#D9D9D9" />
    <path d="M159.374 257.836H331.76L245.567 0.74292L37 29.5789L0.5 257.836H159.374Z" fill="#D9D9D9" />
  </mask>
  <g mask="url(#mask0_148_181)">
    <path fill-rule="evenodd" clip-rule="evenodd"
      d="M462.913 184.376C422.365 225.387 371.552 216.849 337.377 208.79C317.947 204.207 300.12 194.415 283.64 183.639C275.364 178.227 267.183 172.4 259.212 166.691C258.569 166.23 257.927 165.77 257.286 165.311C249.907 160.022 242.698 154.857 235.383 149.936C203.638 128.582 173.176 114.159 136.114 123.069C99.111 131.965 74.3475 163.924 57.7513 199.041C45.2414 225.512 38.7619 250.165 34.6285 265.891C33.1954 271.344 32.0443 275.723 31.0217 278.734L2.97905 267.265C3.38197 266.079 4.0322 263.582 4.95127 260.054C8.68829 245.708 16.8699 214.298 30.9423 184.521C48.7265 146.89 78.4248 105.338 127.761 93.4771C177.038 81.6307 216.817 102.117 250.594 124.838C258.324 130.037 265.912 135.476 273.22 140.713C273.882 141.188 274.541 141.66 275.198 142.131C283.196 147.86 290.866 153.317 298.502 158.31C313.844 168.342 328.083 175.838 342.383 179.21C375.669 187.06 412.199 191.768 441.486 162.145C472.103 131.179 498.466 59.3712 497.188 -99.8847L526.812 -98.3452C528.099 62.0037 502.132 144.709 462.913 184.376Z"
      fill="#1C1A44" />
    <path fill-rule="evenodd" clip-rule="evenodd"
      d="M554.398 190.289C506.959 235.076 450.346 230.929 415.33 222.873C396.548 218.551 379.293 209.74 363.285 200.122C355.277 195.31 347.348 190.15 339.641 185.135L339.595 185.105C331.793 180.028 324.202 175.088 316.508 170.45C285.926 152.014 256.133 139.837 219.446 149.215C181.734 158.855 156.228 184.737 139.134 211.439C123.549 235.786 115.625 259.726 111.983 270.731C111.626 271.811 111.309 272.766 111.031 273.585L82.9333 262.387C83.1868 261.641 83.4856 260.735 83.8327 259.682C87.472 248.644 96.4179 221.512 114.046 193.976C133.377 163.779 163.953 131.785 210.896 119.785C258.862 107.523 297.484 124.561 330.628 144.542C338.801 149.469 346.787 154.666 354.455 159.656L354.636 159.774C362.44 164.853 369.909 169.709 377.365 174.189C392.317 183.172 406.294 190.055 420.458 193.314C451.333 200.418 496.151 202.979 533.669 167.558C571.833 131.528 605.914 53.1033 605.914 -111.751L635.596 -110.232C635.596 57.4131 601.192 146.111 554.398 190.289Z"
      fill="#428EFF" />
    <path fill-rule="evenodd" clip-rule="evenodd"
      d="M508.737 177.482C466.862 218.183 415.786 222.384 379.789 213.895C360.257 209.289 344.724 198.501 331.321 186.828C324.649 181.018 318.241 174.747 312.138 168.768L311.901 168.536C305.773 162.532 299.912 156.791 293.782 151.37C281.452 140.468 268.79 131.571 253.59 126.5C238.522 121.473 219.79 119.823 194.946 125.349C107.13 144.886 85.037 228.006 76.2732 260.979C75.2 265.016 74.3267 268.302 73.5571 270.627L45.4423 259.373C45.8754 258.065 46.4355 255.824 47.1881 252.814C54.5828 223.234 80.5545 119.343 187.055 95.6508C216.189 89.1694 240.336 90.6989 261.232 97.6699C281.995 104.597 298.38 116.515 312.359 128.875C319.121 134.854 325.497 141.101 331.454 146.938L331.935 147.409C338.14 153.488 343.879 159.09 349.714 164.172C361.325 174.284 372.249 181.357 384.796 184.316C412.957 190.957 453.747 187.867 487.698 154.868C521.815 121.707 551.211 56.2119 551.211 -66.8725L580.836 -65.0838C580.836 62.332 550.445 136.944 508.737 177.482Z"
      fill="#428EFF" />
    <path fill-rule="evenodd" clip-rule="evenodd"
      d="M579.738 189.625C537.542 233.155 483.923 233.829 443.059 224.426C422.294 219.649 403.19 209.869 384.81 198.459C375.616 192.752 366.541 186.595 357.514 180.419C356.461 179.698 355.408 178.976 354.356 178.256C346.365 172.782 338.403 167.328 330.311 162.106C293.757 138.513 255.53 120.294 206.629 129.791C157.896 139.255 128.447 175.184 110.218 211.823C101.122 230.106 94.9088 248.4 90.5403 263.332C88.3579 270.792 86.6418 277.391 85.2482 282.75L85.1598 283.09C83.8397 288.167 82.74 292.396 81.8084 294.935L72.5212 290.979C73.2643 288.954 74.2448 285.21 75.6739 279.715L75.6852 279.672C77.0768 274.32 78.8237 267.602 81.0479 260C85.5073 244.757 91.909 225.869 101.35 206.893C120.196 169.014 151.51 130.115 204.315 119.86C256.951 109.638 297.987 129.563 335.292 153.64C343.514 158.948 351.603 164.488 359.581 169.953C360.634 170.674 361.684 171.394 362.732 172.111C371.758 178.287 380.661 184.324 389.634 189.895C407.59 201.041 425.577 210.158 444.769 214.574C483.819 223.559 533.484 222.623 572.536 182.336C611.816 141.813 641.409 60.466 637.308 -94.2856L647.199 -94.0524C651.325 61.6482 621.705 146.329 579.738 189.625Z"
      fill="#FF9BEF" />
    <path fill-rule="evenodd" clip-rule="evenodd"
      d="M440.437 212.084C422.893 216.566 406.198 214.595 392.669 211.404C378.576 208.081 363.647 200.795 348.854 192.811C343.386 189.86 337.968 186.834 332.533 183.798C322.778 178.348 312.969 172.869 302.724 167.746C271.033 151.899 240.246 142.241 210.936 153.506C181.26 164.911 163.146 193.006 151.727 222.259C146.078 236.73 142.234 251.063 139.461 263.006C138.2 268.436 137.17 273.329 136.281 277.553C136.192 277.976 136.104 278.392 136.018 278.802C135.109 283.115 134.267 287.075 133.466 289.783L114.535 282.882C115.06 281.103 115.726 278.05 116.701 273.425C116.787 273.016 116.875 272.599 116.965 272.172C117.852 267.96 118.922 262.874 120.232 257.233C123.118 244.804 127.211 229.472 133.329 213.8C145.442 182.769 166.176 148.671 203.065 134.493C240.319 120.176 277.856 133.313 310.52 149.646C321.134 154.953 331.777 160.895 341.842 166.514C347.163 169.484 352.322 172.365 357.23 175.013C371.914 182.937 384.755 189.031 396.006 191.685C407.821 194.471 421.108 195.87 434.613 192.419C447.955 189.011 462.31 180.667 475.976 162.567C503.729 125.806 528.3 49.223 533.631 -104.343L553.369 -102.435C548.008 51.9769 523.342 133.838 491.859 175.538C475.907 196.668 458.145 207.56 440.437 212.084Z"
      fill="#426BFF" />
    <path fill-rule="evenodd" clip-rule="evenodd"
      d="M534.148 169.095C495.005 219.759 445.64 229.423 408.036 220.555C379.951 213.931 358.971 198.396 341.763 185.653C337.093 182.194 332.701 178.942 328.519 176.129C318.216 169.197 308.341 163.98 296.848 161.432C285.409 158.897 271.292 158.774 252.462 163.725C193.183 179.311 184.492 227.578 178.964 258.287C177.688 265.375 176.58 271.528 175.057 276.127L146.942 264.873C147.415 263.446 147.844 260.581 148.436 256.625C152.386 230.239 163.605 155.293 243.538 134.276C265.928 128.39 284.718 128.052 301.46 131.763C318.147 135.462 331.725 142.954 343.731 151.032C349.991 155.243 355.675 159.426 361.124 163.437C377.468 175.465 391.705 185.944 413.042 190.976C439.596 197.238 477.962 191.52 510.51 149.393C543.575 106.596 571.187 25.3393 571.187 -120.394L600.812 -118.606C600.812 30.1606 572.773 119.102 534.148 169.095Z"
      fill="#42DDFF" />
  </g>
</svg>