<svg width="981" height="348" viewBox="0 0 981 348" fill="none" xmlns="http://www.w3.org/2000/svg">
  <mask id="path-1-inside-1_125_1503" fill="white">
    <path fill-rule="evenodd" clip-rule="evenodd"
      d="M291.503 128.796C291.503 128.796 291.503 128.796 291.503 128.796C291.503 97.9915 266.531 73.0198 235.727 73.0198C204.923 73.0198 179.951 97.9915 179.951 128.796C179.951 128.796 179.951 128.796 179.951 128.796V240.348H291.503V128.796Z" />
  </mask>
  <path
    d="M179.951 240.348H178.951V241.348H179.951V240.348ZM291.503 240.348V241.348H292.503V240.348H291.503ZM290.503 128.796C290.503 128.796 290.503 128.796 290.503 128.796C290.503 128.796 290.503 128.796 290.503 128.796C290.503 128.796 290.503 128.796 290.503 128.796V128.796C290.503 128.796 290.503 128.796 290.503 128.796C290.503 128.796 290.503 128.796 290.503 128.796C290.503 128.796 290.503 128.796 290.503 128.796C290.503 128.796 290.503 128.796 290.503 128.796C290.503 128.796 290.503 128.796 290.503 128.796C290.503 128.796 290.503 128.796 290.503 128.796C290.503 128.796 290.503 128.796 290.503 128.796C290.503 128.796 290.503 128.796 290.503 128.796C290.503 128.796 290.503 128.796 290.503 128.796V128.796C290.503 128.796 290.503 128.796 290.503 128.796C290.503 128.796 290.503 128.796 290.503 128.796C290.503 128.796 290.503 128.796 290.503 128.796H292.503C292.503 128.796 292.503 128.796 292.503 128.796C292.503 128.796 292.503 128.796 292.503 128.796C292.503 128.796 292.503 128.796 292.503 128.796V128.796C292.503 128.796 292.503 128.796 292.503 128.796C292.503 128.796 292.503 128.796 292.503 128.796C292.503 128.796 292.503 128.796 292.503 128.796C292.503 128.796 292.503 128.796 292.503 128.796C292.503 128.796 292.503 128.796 292.503 128.796C292.503 128.796 292.503 128.796 292.503 128.796C292.503 128.796 292.503 128.796 292.503 128.796C292.503 128.796 292.503 128.796 292.503 128.796C292.503 128.796 292.503 128.796 292.503 128.796V128.796C292.503 128.796 292.503 128.796 292.503 128.796C292.503 128.796 292.503 128.796 292.503 128.796C292.503 128.796 292.503 128.796 292.503 128.796H290.503ZM235.727 74.0198C265.979 74.0198 290.503 98.5438 290.503 128.796H292.503C292.503 97.4393 267.083 72.0198 235.727 72.0198V74.0198ZM180.951 128.796C180.951 98.5438 205.475 74.0198 235.727 74.0198V72.0198C204.37 72.0198 178.951 97.4393 178.951 128.796H180.951ZM180.951 128.796C180.951 128.796 180.951 128.796 180.951 128.796C180.951 128.796 180.951 128.796 180.951 128.796C180.951 128.796 180.951 128.796 180.951 128.796V128.796C180.951 128.796 180.951 128.796 180.951 128.796C180.951 128.796 180.951 128.796 180.951 128.796C180.951 128.796 180.951 128.796 180.951 128.796C180.951 128.796 180.951 128.796 180.951 128.796C180.951 128.796 180.951 128.796 180.951 128.796C180.951 128.796 180.951 128.796 180.951 128.796C180.951 128.796 180.951 128.796 180.951 128.796C180.951 128.796 180.951 128.796 180.951 128.796C180.951 128.796 180.951 128.796 180.951 128.796V128.796C180.951 128.796 180.951 128.796 180.951 128.796C180.951 128.796 180.951 128.796 180.951 128.796C180.951 128.796 180.951 128.796 180.951 128.796H178.951C178.951 128.796 178.951 128.796 178.951 128.796C178.951 128.796 178.951 128.796 178.951 128.796C178.951 128.796 178.951 128.796 178.951 128.796V128.796C178.951 128.796 178.951 128.796 178.951 128.796C178.951 128.796 178.951 128.796 178.951 128.796C178.951 128.796 178.951 128.796 178.951 128.796C178.951 128.796 178.951 128.796 178.951 128.796C178.951 128.796 178.951 128.796 178.951 128.796C178.951 128.796 178.951 128.796 178.951 128.796C178.951 128.796 178.951 128.796 178.951 128.796C178.951 128.796 178.951 128.796 178.951 128.796C178.951 128.796 178.951 128.796 178.951 128.796V128.796C178.951 128.796 178.951 128.796 178.951 128.796C178.951 128.796 178.951 128.796 178.951 128.796C178.951 128.796 178.951 128.796 178.951 128.796H180.951ZM180.951 240.348V128.796H178.951V240.348H180.951ZM291.503 239.348H179.951V241.348H291.503V239.348ZM290.503 128.796V240.348H292.503V128.796H290.503Z"
    fill="#1C1A44" mask="url(#path-1-inside-1_125_1503)" />
  <path d="M369.796 240.207V128.919L424.973 74.3807L480.149 128.919V240.207H369.796Z"
    stroke="#1C1A44" />
  <path d="M567.857 240.207L622.839 75.2588L677.822 240.207H567.857Z" stroke="#1C1A44" />
  <mask id="path-5-inside-2_125_1503" fill="white">
    <path fill-rule="evenodd" clip-rule="evenodd"
      d="M805.464 74.1858H837.221L872.818 113.398V170.256H872.817V240.347H747.338L747.338 170.256V113.398L782.935 74.1858H805.464V74.1858Z" />
  </mask>
  <path
    d="M837.221 74.1858L837.961 73.5136L837.663 73.1858H837.221V74.1858ZM805.464 74.1858V73.1858H804.464V74.1858H805.464ZM872.818 113.398H873.818V113.012L873.558 112.726L872.818 113.398ZM872.818 170.256V171.256H873.818V170.256H872.818ZM872.817 170.256V169.256H871.817V170.256H872.817ZM872.817 240.347V241.347H873.817V240.347H872.817ZM747.338 240.347H746.338L746.338 241.347H747.338V240.347ZM747.338 170.256H746.338H747.338ZM747.338 113.398L746.598 112.726L746.338 113.012V113.398H747.338ZM782.935 74.1858V73.1858H782.492L782.195 73.5136L782.935 74.1858ZM805.464 74.1858V75.1858H806.464V74.1858H805.464ZM837.221 73.1858H805.464V75.1858H837.221V73.1858ZM873.558 112.726L837.961 73.5136L836.48 74.8579L872.077 114.07L873.558 112.726ZM873.818 170.256V113.398H871.818V170.256H873.818ZM872.817 171.256H872.818V169.256H872.817V171.256ZM873.817 240.347V170.256H871.817V240.347H873.817ZM747.338 241.347H872.817V239.347H747.338V241.347ZM746.338 170.256L746.338 240.347H748.338L748.338 170.256H746.338ZM746.338 113.398V170.256H748.338V113.398H746.338ZM782.195 73.5136L746.598 112.726L748.079 114.07L783.675 74.8579L782.195 73.5136ZM805.464 73.1858H782.935V75.1858H805.464V73.1858ZM804.464 74.1858V74.1858H806.464V74.1858H804.464Z"
    fill="#1C1A44" mask="url(#path-5-inside-2_125_1503)" />
  <path
    d="M4.92224 289.073C4.16704 293.426 7.04535 297.758 11.3511 298.749C15.6569 299.739 19.7596 297.014 20.5148 292.66C21.27 288.307 18.3917 283.975 14.0859 282.984C9.78016 281.993 5.67743 284.719 4.92224 289.073ZM14.1518 291.333C23.4025 256.709 45.5532 214.561 88.8917 186.025C132.205 157.507 196.856 142.469 291.357 162.378L291.815 159.41C196.721 139.376 131.259 154.441 87.1966 183.453C43.1602 212.448 20.6746 255.257 11.2853 290.4L14.1518 291.333Z"
    fill="#FF9BEF" />
  <path d="M370.153 183.317C442.125 212.312 565.363 246.895 663.954 195.442" stroke="#FF9BEF"
    stroke-width="3" />
  <path
    d="M964.316 8.57886C964.316 12.9971 967.898 16.5789 972.316 16.5789C976.734 16.5789 980.316 12.9971 980.316 8.57886C980.316 4.16058 976.734 0.578857 972.316 0.578857C967.898 0.578857 964.316 4.16058 964.316 8.57886ZM751.857 162.449C781.927 151 829.061 129.63 872.803 102.705C916.471 75.8251 957.058 43.2294 973.664 9.23725L970.968 7.92046C954.77 41.078 914.859 73.2945 871.231 100.15C827.676 126.961 780.715 148.251 750.789 159.645L751.857 162.449Z"
    fill="#FF9BEF" />
  <path
    d="M0.684082 92.5219C0.684082 96.9402 4.2658 100.522 8.68408 100.522C13.1024 100.522 16.6841 96.9402 16.6841 92.5219C16.6841 88.1036 13.1024 84.5219 8.68408 84.5219C4.2658 84.5219 0.684082 88.1036 0.684082 92.5219ZM7.41276 93.318C32.38 133.19 123.44 212.227 288.78 212.227V209.227C124.394 209.227 34.3333 130.657 9.95541 91.7258L7.41276 93.318Z"
    fill="#42DDFF" />
  <path d="M372.723 210.727C500.357 210.728 536.232 109.393 644.253 134.088" stroke="#42DDFF"
    stroke-width="3" />
  <path
    d="M960.034 208.955C960.034 213.374 963.615 216.955 968.034 216.955C972.452 216.955 976.034 213.374 976.034 208.955C976.034 204.537 972.452 200.955 968.034 200.955C963.615 200.955 960.034 204.537 960.034 208.955ZM750.224 144.539C759.566 146.07 770.155 152.625 782.933 161.464C795.607 170.231 810.275 181.122 827.517 190.864C862.085 210.397 907.137 225.405 968.39 210.412L967.677 207.498C907.349 222.265 863.081 207.514 828.993 188.252C811.907 178.598 797.413 167.833 784.64 158.997C771.972 150.233 760.831 143.237 750.709 141.579L750.224 144.539Z"
    fill="#42DDFF" />
  <path
    d="M2.39746 171.326C2.39746 175.744 5.97918 179.326 10.3975 179.326C14.8157 179.326 18.3975 175.744 18.3975 171.326C18.3975 166.907 14.8157 163.326 10.3975 163.326C5.97918 163.326 2.39746 166.907 2.39746 171.326ZM10.3975 172.826H290.493V169.826H10.3975V172.826Z"
    fill="#426BFF" />
  <path d="M371.01 171.326H656.245" stroke="#426BFF" stroke-width="3" />
  <path
    d="M960.033 171.326C960.033 175.744 963.615 179.326 968.033 179.326C972.452 179.326 976.033 175.744 976.033 171.326C976.033 166.907 972.452 163.326 968.033 163.326C963.615 163.326 960.033 166.907 960.033 171.326ZM748.753 172.826H968.033V169.826H748.753V172.826Z"
    fill="#426BFF" />
</svg>