<svg width="717" height="717" viewBox="0 0 717 717" fill="none" xmlns="http://www.w3.org/2000/svg">
<circle cx="358.5" cy="358.5" r="358.5" fill="#FF88EC"/>
<path fill-rule="evenodd" clip-rule="evenodd" d="M370.901 252.297C329.281 252.297 295.541 285.985 295.541 327.541C295.541 369.097 329.281 402.785 370.901 402.785C412.522 402.785 446.262 369.097 446.262 327.541C446.262 285.985 412.522 252.297 370.901 252.297ZM233.047 327.541C233.047 251.524 294.766 189.9 370.901 189.9C447.036 189.9 508.755 251.524 508.755 327.541C508.755 403.558 447.036 465.182 370.901 465.182C294.766 465.182 233.047 403.558 233.047 327.541Z" fill="#FCF9F6"/>
<path fill-rule="evenodd" clip-rule="evenodd" d="M233.05 414.163L233.05 327.541L295.544 327.541L295.544 414.163L233.05 414.163Z" fill="#FCF9F6"/>
<path fill-rule="evenodd" clip-rule="evenodd" d="M201.793 513.926C230.203 472.72 233.046 431.806 233.046 414.163L295.54 414.163C295.54 438.281 291.699 493.568 253.27 549.307L201.793 513.926Z" fill="#FCF9F6"/>
</svg>
